<?xml version="1.0" encoding="UTF-8"?><svg xmlns="http://www.w3.org/2000/svg" viewBox="0 0 158.95 167.02"><defs><style>.cls-1{fill:#4cc5e5;}</style></defs><g id="Layer_1"><g><g><path class="cls-1" d="m47.84,78.76c-.11.07-.19.16-.21.26.22-.13.44-.27.67-.41-.19.03-.34.09-.46.15Zm-.35,10.58c1.97-1.07,3.75-2.15,4.78-3.01-1.67,1.07-3.36,2.13-4.78,3.01Z"/><path class="cls-1" d="m134.65,71.68c-1.28-1.95-2.35-2.93-3.2-2.93-.68,0-1.43.25-2.24.74-.82.48-1.74,1.18-2.78,2.1-1.05.91-2.47,2.15-4.28,3.73-1.8,1.58-3.6,3.05-5.39,4.42-1.31,1.01-2.93,2.47-4.89,4.39-1.95,1.93-4.93,4.97-8.93,9.14-4,4.16-7.86,8.21-11.57,12.15,3.9-6.57,7.04-11.94,9.42-16.11s4.18-7.58,5.42-10.25,1.86-4.48,1.86-5.42c0-1.44-.45-2.78-1.35-4.03-.89-1.25-1.91-1.88-3.05-1.88-.81,0-2.37.71-4.66,2.12-2.3,1.42-4.76,3.24-7.4,5.47-2.64,2.23-5.01,4.57-7.13,7.01-1.56,1.79-3.1,3.56-4.61,5.32-1.52,1.76-3.04,3.56-4.57,5.42-1.53,1.86-3.14,3.87-4.83,6.05,2.15-4.49,3.94-8.23,5.39-11.23,1.45-2.99,2.6-5.62,3.45-7.88.84-2.26,1.27-4.22,1.27-5.89,0-.45-.29-1.48-.86-3.1-.57-1.61-1.26-3.02-2.07-4.24-.82-1.22-1.68-1.83-2.59-1.83-1.83,0-5.09.93-9.79,2.8-4.05,1.61-9.77,6.13-15.07,9.64-.64.43-1.28.83-1.9,1.22-.23.14-.45.28-.67.41.02-.1.1-.19.21-.26-10.35,5.89-19.05,8.91-28.36,8.91-3.35,0-5.92-.44-7.71-1.34-1.79-.9-2.69-2.14-2.69-3.74,0-1.85,1.26-3.98,3.76-6.39,2.51-2.41,5.99-4.79,10.45-7.13,3-1.53,5.72-2.7,8.18-3.52,2.46-.81,4.58-1.39,6.37-1.73s4.2-.76,7.23-1.25c1.95-.29,3.52-1.21,4.71-2.75,1.19-1.55,1.78-2.93,1.78-4.13,0-.94-.5-1.55-1.51-1.81-1.01-.26-3.27-.39-6.79-.39-4.81,0-8.87-.05-12.15-.14-3.29-.1-6.03-.29-8.23-.57-2.2-.27-3.79-.66-4.79-1.17-.99-.5-1.49-1.14-1.49-1.93,0-1.49,1.9-5.45,5.17-7.66,3.27-2.22,8.32-4.4,13-6,4.67-1.59,6.96-2,11-2,.23,0,.77-.01,1,0,2.1.04,3.42,4.66,1.82,6.02-.01.01-.02.02-.03.02-.99.85-2.09,2.15-3.29,3.91,3.12-2.11,6.38-3.95,9.79-5.52,3.4-1.56,5.37-2.52,5.9-2.88.54-.36.81-1.22.81-2.59v-3.32c0-1.82-.11-3.06-.34-3.73-.23-.67-.24-2.5-1.66-2.91-1.41-.41-6.42-2-10-2-6.22,0-8.77-.38-14,1-5.22,1.39-9.32,3.72-13,6-3.68,2.27-6.98,5.17-9,8-2.01,2.83-4.39,8.57-4.39,11.37,0,2.18.62,4.17,1.88,5.96,1.25,1.79,3.03,3.04,5.34,3.76,2.25.65,4.38,1.07,6.4,1.27,2.02.19,4.35.31,7.01.34,2.65.03,4.47.09,5.47.17.99.08,1.49.32,1.49.71,0,.35-.43.61-1.27.78-5.93,1.1-11.16,2.62-15.7,4.54-4.54,1.92-8.3,4.06-11.26,6.42-2.96,2.36-5.16,4.83-6.59,7.4s-2.15,5.16-2.15,7.76c0,3.58,1.48,6.45,4.45,8.62,2.96,2.16,6.7,3.25,11.23,3.25,3.9,0,8.08-.51,12.52-1.52,4.44-1.01,8.55-2.36,12.31-4.05.87-.39,1.89-.87,2.96-1.39,1.3-.64,2.68-1.34,3.99-2.05.01-.01.02-.02.03-.02,1.42-.88,3.11-1.94,4.78-3.01,1.88-1.18,3.74-2.35,5.19-3.22,3.82-2.31,6.99-4.13,9.49-5.47,2.51-1.33,4.28-2,5.32-2,1.27,0,1.91.7,1.91,2.1s-.49,3.16-1.47,5.49c-.97,2.33-2.53,5.29-4.68,8.89-2.15,3.6-4.61,7.4-7.38,11.4-2.76,4-6.3,8.87-10.59,14.6-.39.58-.59,1.12-.59,1.61,0,1.5.5,3.46,1.49,5.88.99,2.43,2.06,3.64,3.2,3.64.91,0,1.74-.5,2.49-1.51s2.02-2.98,3.81-5.91c5.47-8.56,10.72-16.1,15.75-22.61,5.02-6.51,9.25-11.41,12.67-14.72,3.41-3.3,5.74-4.96,6.98-4.96.58,0,.88.51.88,1.52,0,1.17-.37,2.52-1.1,4.05-.73,1.53-1.87,3.58-3.39,6.15-2.19,3.71-4.19,6.87-6.01,9.48-1.82,2.6-4.13,5.8-6.91,9.59-2.78,3.79-4.59,6.42-5.42,7.89-.83,1.46-1.24,2.83-1.24,4.1,0,2.08.33,4.04,1,5.88.66,1.84,1.45,2.76,2.36,2.76.53,0,1.14-.34,1.86-1.02.72-.69,1.94-2.16,3.69-4.42,1.74-2.27,2.77-3.59,3.1-3.98,5.79-7.33,11.19-13.64,16.18-18.95,5-5.3,9.09-9.32,12.28-12.06,3.19-2.73,5.1-4.1,5.72-4.1.19,0,.37.08.53.24.17.17.25.36.25.59,0,.39-1.37,2.15-4.1,5.27-3.68,4.24-6.74,8.05-9.18,11.45-2.44,3.41-4.32,6.7-5.64,9.89s-1.98,6.41-1.98,9.67c0,2.83.76,5.14,2.29,6.93,1.53,1.79,3.5,2.69,5.91,2.69,1.01,0,2.22-.3,3.64-.91,1.42-.6,3.2-1.61,5.35-3.02,2.15-1.42,4.3-3.01,6.47-4.79,2.16-1.77,2.13-1.52,5.23-4.42l2.65-5.95c-.36.22-.9.61-1.63,1.14-.74.54-1.76,1.27-3.08,2.2-1.32.93-2.66,1.8-4.03,2.61-.97.65-2.01,1.34-3.1,2.05-1.09.72-2.08,1.27-2.98,1.66-.89.39-1.86.59-2.9.59-1.14,0-1.98-.33-2.52-.98-.53-.65-.8-1.69-.8-3.12,0-2.31.84-5.46,2.51-9.45,1.68-3.99,4.14-8.4,7.4-13.23,3.25-4.84,7.1-9.63,11.52-14.38,2.41-2.57,4-4.33,4.76-5.28.77-.94,1.15-1.75,1.15-2.44,0-.55-.64-1.8-1.93-3.76Zm-80.18,4.91c-.14-.11-.28-.21-.44-.28.37-.22.6-.34.6-.29,0,.02-.06.23-.16.57Z"/><path class="cls-1" d="m50.2,77.39c-.64.43-1.28.83-1.9,1.22-.19.03-.34.09-.46.15.78-.44,1.56-.9,2.36-1.37Z"/></g><path class="cls-1" d="m43.47,91.41c.43-.08.82-.21,1.16-.39.65-.34,1.65-.94,2.83-1.66-1.31.71-2.69,1.41-3.99,2.05Zm4.37-12.65c-.11.07-.19.16-.21.26.22-.13.44-.27.67-.41-.19.03-.34.09-.46.15Zm6.19-2.45c.16.07.3.17.44.28.1-.34.16-.55.16-.57,0-.05-.23.07-.6.29Z"/></g></g><g id="Layer_2"><g><path class="cls-1" d="m68.45,78.61s8.78-6.49,2.05,5.96l-2.05-5.96Z"/><polygon class="cls-1" points="77.24 86.57 77.87 88.15 73.66 93.86 77.24 86.57"/><polygon class="cls-1" points="76.09 101.09 80.72 95.32 83.32 101.97 78.55 109.54 76.09 101.09"/><path class="cls-1" d="m83.75,124.88l5.58-6.75s9.54,25.52,3.45,35.89c-7.65,13.03-15,13-15,13,0,0,7.26-7.87,9.55-17.95.9-3.96.71-8.09-.33-12.02l-3.23-12.17Z"/><path class="cls-1" d="m64.77,66.02l5-2s-3.92-42.54,28.74-53.45c9.09-3.04,19.03-2.76,27.75,1.21,11.7,5.33,26.28,18.46,27.34,50.81.19,5.7-.66,11.4-2.52,16.8-3.46,10.01-11.52,25.69-30.16,41.04l2.63,3.09s31.22-24.5,34.94-54.79c0,0,8.28-63.71-45.72-68.71,0,0-52.8-2.88-48,66Z"/></g></g></svg>